PathFileType	4	(X/Y/Z)	Exemple_fichier.trc																																																																																																																															
DataRate	CameraRate	NumFrames	NumMarkers	Units	OrigDataRate	OrigDataStartFrame	OrigNumFrames																																																																																																																											
200	200	5	43	mm	200	1	2000																																																																																																																											
Frame#	Time	LFHD			RFHD			RBHD			LBHD			C7			T10			R10			CLAV			STRN			LSHO			LUPA			LELB			LFRA			LWRA			LWRB			LFIN0			LFINx			LFINy			RSHO			RUPA			RELB			RFRA			RWRA			RWRB			RFIN0			RFINx			RFINy			LASI			RASI			RBSI			LBSI			LTHI			LKNE			LTIB			LANK			LHEE			LTOE			RTHI			RKNE			RTIB			RANK			RHEE			RTOE		
		X1	Y1	Z1	X2	Y2	Z2	X3	Y3	Z3	X4	Y4	Z4	X5	Y5	Z5	X6	Y6	Z6	X7	Y7	Z7	X8	Y8	Z8	X9	Y9	Z9	X10	Y10	Z10	X11	Y11	Z11	X12	Y12	Z12	X13	Y13	Z13	X14	Y14	Z14	X15	Y15	Z15	X16	Y16	Z16	X17	Y17	Z17	X18	Y18	Z18	X19	Y19	Z19	X20	Y20	Z20	X21	Y21	Z21	X22	Y22	Z22	X23	Y23	Z23	X24	Y24	Z24	X25	Y25	Z25	X26	Y26	Z26	X27	Y27	Z27	X28	Y28	Z28	X29	Y29	Z29	X30	Y30	Z30	X31	Y31	Z31	X32	Y32	Z32	X33	Y33	Z33	X34	Y34	Z34	X35	Y35	Z35	X36	Y36	Z36	X37	Y37	Z37	X38	Y38	Z38	X39	Y39	Z39	X40	Y40	Z40	X41	Y41	Z41	X42	Y42	Z42	X43	Y43	Z43
																																																																																																																																		
1	0	408.62299	288.39078	1459.02271	512.98334	283.75278	1452.76013	513.34424	141.32719	1399.85144	403.32202	141.64301	1405.85986	450.58295	104.33936	1294.43225	447.92889	64.50544	1157.00598	610.31036	92.3792	1188.63379	459.73709	224.2289	1225.1239	454.98129	324.77219	1091.20801	307.09198	194.61572	1256.41541	254.21861	246.63902	1108.30579	229.71413	272.31281	965.38464	252.66576	358.47046	1032.77698	302.24136	446.17889	1081.60229	289.83163	468.23788	1042.27808	296.45746	503.82309	1057.6394	298.4054	521.91547	1067.65112	296.64587	491.30478	1090.59216	608.36145	174.17133	1248.20935	670.36414	167.43019	1033.33276	686.00366	127.13418	958.68988	638.43909	285.9437	987.89221	601.74426	326.91571	1013.90167	610.99139	338.93207	969.57184	610.0351	386.79514	973.96759	614.38641	406.2977	978.21014	621.04572	380.91327	1003.08948	320.34894	264.8605	892.9527	556.31281	277.2373	885.87488	479.9631	98.76235	911.58386	408.22577	98.41854	913.5343	341.69019	294.24295	633.6355	297.4913	158.10654	448.37912	321.70715	194.32719	323.57504	309.15222	124.0597	81.0051	356.86475	88.56174	15.35066	288.82974	328.92654	50.29626	535.60687	285.33481	556.71649	609.73303	179.21582	439.62103	587.23755	196.83839	235.8446	608.0802	144.54161	75.89116	572.06506	93.26446	14.65634	612.19373	339.26648	47.8139
2	0.005	408.56955	288.39633	1459.02734	512.93909	283.76236	1452.72681	513.35101	141.3243	1399.84717	403.31271	141.60054	1405.87732	450.56244	104.31373	1294.41382	447.91406	64.44575	1156.98621	610.31464	92.38537	1188.5647	459.77444	224.2123	1225.12549	454.98633	324.79828	1091.20154	307.1124	194.62196	1256.44727	254.24725	246.65622	1108.3584	229.83235	272.70093	965.46448	252.9272	358.87195	1032.80103	302.26892	446.55939	1081.55359	289.96063	468.58148	1042.15125	296.75095	504.26108	1057.44702	298.76971	522.2464	1067.53394	296.93777	491.73865	1090.44885	608.36517	174.2135	1248.24915	670.3869	167.69002	1033.37549	686.04041	127.50766	958.65118	638.50916	286.31049	988.00098	601.85193	327.24628	1014.02155	611.16492	339.35196	969.7323	610.05383	387.10825	973.93073	614.6217	406.6965	978.18103	621.02924	381.24048	1002.92352	320.336	264.5177	893.27759	556.28418	277.23352	885.8844	479.94775	98.81577	911.58875	408.21152	98.40869	913.50342	341.62885	294.21896	633.62634	297.51306	158.1232	448.4346	321.70715	194.32719	323.57504	309.19568	124.07605	81.0164	356.82037	88.64314	15.28718	288.81409	328.8696	50.26165	535.60242	285.34827	556.72394	609.711	179.21584	439.59253	587.19574	196.87064	235.8661	608.12	144.55333	75.93362	572.09967	93.26494	14.69596	612.21613	339.32819	47.95189
3	0.01	408.53027	288.3819	1458.95325	512.8891	283.80426	1452.70166	513.36224	141.34419	1399.91101	403.35602	141.56197	1405.84119	450.56189	104.32611	1294.44128	447.91406	64.44575	1156.98621	610.32941	92.42147	1188.47449	459.72186	224.20775	1225.13843	454.8826	324.75101	1091.18835	306.93375	194.82434	1256.52307	254.27895	246.79785	1108.57654	229.8484	272.9129	965.51208	252.96919	359.21469	1032.82617	302.39111	446.94452	1081.4314	290.19965	468.85812	1042.08264	297.00769	504.71857	1057.3468	299.17236	522.72546	1067.35522	297.12766	492.18887	1090.26672	608.40009	174.19658	1248.2522	670.39606	167.93178	1033.4126	686.09631	127.88472	958.71246	638.58679	286.59921	988.14435	602.09802	327.68817	1014.16138	611.20648	339.61633	969.72278	610.17114	387.49954	973.89069	614.59009	407.07681	977.99719	621.24591	381.81268	1002.9328	320.34164	264.47159	893.2713	556.29065	277.2778	885.86627	479.93027	98.79087	911.60632	408.28629	98.35635	913.48651	341.62378	294.19925	633.65375	297.47766	158.07082	448.43372	321.70715	194.32719	323.57504	309.15222	124.0597	81.0051	356.80771	88.59882	15.27875	288.84018	328.85547	50.25117	535.59088	285.35025	556.72729	609.72296	179.24068	439.63684	587.22998	196.83627	235.88031	608.0802	144.54161	75.89116	572.12317	93.22485	14.69861	612.23352	339.26181	47.86875
4	0.015	408.53839	288.35788	1458.9519	512.90442	283.80099	1452.70313	513.44775	141.37326	1399.84546	403.32941	141.58257	1405.85742	450.55914	104.29024	1294.3916	447.97223	64.37206	1156.97009	610.42859	92.4847	1188.55273	459.73605	224.20033	1225.14246	454.83392	324.73495	1091.17249	306.97537	194.81065	1256.55054	254.23151	246.90083	1108.63477	229.81366	273.26712	965.66522	253.02203	359.61572	1032.88452	302.57407	447.4501	1081.35547	290.41248	469.35883	1041.92737	297.29443	505.01205	1057.15356	299.40628	523.08313	1067.23401	297.39502	492.62186	1090.0636	608.39349	174.205	1248.28357	670.44751	168.15981	1033.37366	686.15643	128.24149	958.64148	638.68738	286.95728	988.21918	602.3017	328.01709	1014.28925	611.26721	340.04074	969.84698	610.14594	387.79367	973.84088	614.64203	407.4111	977.88464	621.38086	382.13705	1002.9566	320.3186	264.4465	893.28857	556.28186	277.24005	885.84558	480.02499	98.76295	911.58014	408.31985	98.30598	913.50232	341.55069	294.20056	633.67236	297.44504	158.02966	448.40866	321.70715	194.32719	323.57504	309.15222	124.0597	81.0051	356.82474	88.55614	15.29536	288.83511	328.87704	50.26032	535.56744	285.35275	556.70398	609.68945	179.24805	439.57242	587.21906	196.76903	235.81154	608.12	144.55333	75.93362	572.08856	93.22437	14.65899	612.23492	339.28424	47.8792
5	0.02	408.51263	288.34717	1458.92957	512.88348	283.79523	1452.64221	513.41809	141.37701	1399.82227	403.36835	141.54578	1405.82092	450.55914	104.29024	1294.3916	447.95096	64.30655	1156.97229	610.36816	92.45541	1188.47888	459.7421	224.19637	1225.13831	454.81659	324.71054	1091.16113	306.97998	194.82695	1256.58105	254.29816	247.04007	1108.70081	229.99359	273.61722	965.72803	253.10011	360.00418	1032.82581	302.86017	447.74808	1081.20251	290.59433	469.63052	1041.82715	297.56256	505.6058	1056.8905	299.81122	523.47028	1066.92737	297.64853	493.19299	1089.85583	608.37872	174.21788	1248.28259	670.48132	168.42513	1033.35974	686.17151	128.56677	958.52258	638.79266	287.36606	988.34381	602.46948	328.49039	1014.47076	611.3537	340.38171	969.96466	610.29889	388.08121	973.87177	615.10236	407.83606	977.80249	621.59802	382.66208	1002.93109	320.29498	264.46912	893.34021	556.26892	277.19592	885.84381	480.02704	98.75279	911.56342	408.31543	98.30016	913.50299	341.513	294.22202	633.65479	297.37222	157.9951	448.42145	321.70715	194.32719	323.57504	309.16641	123.97734	81.0513	356.80655	88.56725	15.24883	288.8371	328.9245	50.27805	535.55865	285.37442	556.7182	609.68658	179.19376	439.53647	587.20245	196.85002	235.84705	608.0849	144.52675	75.85471	572.11621	93.18712	14.68617	612.22083	339.20868	47.84655
